<?xml version="1.0" standalone="no"?>
<!DOCTYPE svg PUBLIC "-//W3C//DTD SVG 20010904//EN"
 "http://www.w3.org/TR/2001/REC-SVG-20010904/DTD/svg10.dtd">
<svg version="1.0" xmlns="http://www.w3.org/2000/svg"
 width="1280.000000pt" height="640.000000pt" viewBox="0 0 1280.000000 640.000000"
 preserveAspectRatio="xMidYMid meet">
<g transform="translate(0.000000,640.000000) scale(0.100000,-0.100000)"
fill="#000000" stroke="none">
<path d="M290 5549 c-233 -17 -272 -23 -283 -41 -21 -33 72 -123 158 -152 30
-11 51 -10 129 5 86 17 99 17 148 3 29 -8 85 -23 123 -33 92 -23 173 -67 260
-141 39 -33 121 -88 183 -122 211 -118 297 -171 377 -233 97 -76 116 -97 235
-249 51 -66 133 -167 183 -225 97 -113 175 -227 227 -331 18 -36 50 -94 70
-130 24 -42 43 -89 50 -130 18 -106 32 -141 56 -150 23 -9 54 -82 54 -127 0
-31 13 -29 43 7 14 17 30 30 35 30 16 0 111 -127 131 -173 10 -23 33 -85 51
-137 33 -94 34 -98 36 -290 3 -232 22 -340 82 -465 51 -105 142 -203 267 -288
69 -45 107 -80 143 -128 68 -89 165 -238 181 -277 17 -40 28 -41 36 -2 12 55
-10 171 -66 348 -16 51 -29 111 -29 135 0 66 -27 156 -67 222 -102 168 -281
395 -388 491 -61 55 -84 83 -111 141 -36 73 -54 143 -38 143 5 0 51 -43 103
-95 52 -52 135 -124 185 -159 96 -68 334 -301 378 -371 14 -22 34 -76 43 -120
26 -122 83 -301 116 -368 71 -144 203 -287 311 -337 35 -17 103 -39 151 -49
48 -11 100 -27 115 -37 15 -9 89 -78 166 -153 93 -91 136 -128 131 -111 -42
138 -250 564 -346 710 -102 154 -298 336 -428 396 -31 14 -67 31 -81 38 -37
17 -204 181 -197 193 4 7 61 -6 162 -37 142 -44 159 -52 207 -95 64 -58 158
-120 258 -170 185 -92 255 -162 247 -242 -3 -26 -16 -57 -33 -80 -32 -42 -35
-83 -9 -134 46 -91 99 -111 158 -59 19 16 37 30 41 30 3 0 14 -17 25 -38 31
-60 41 -65 107 -53 32 6 66 18 76 28 38 35 11 118 -55 167 -20 15 -41 20 -72
19 -44 -1 -44 -1 -76 55 -64 114 -129 200 -176 234 -26 19 -107 65 -178 102
-72 36 -144 79 -160 94 -27 25 -28 27 -10 30 28 4 258 -63 331 -97 33 -16 132
-77 220 -136 374 -253 564 -428 564 -519 -1 -45 -31 -105 -85 -166 -83 -93
-92 -147 -49 -271 24 -69 25 -83 20 -194 -9 -196 -48 -312 -130 -388 l-41 -39
40 7 c142 23 265 87 323 168 41 58 44 65 103 301 60 233 71 345 45 422 -9 26
-14 50 -11 52 2 3 23 -12 46 -33 58 -52 97 -67 329 -124 329 -80 415 -114 476
-183 41 -46 93 -88 110 -88 36 0 -30 157 -98 235 -66 75 -183 156 -338 235
-115 58 -159 87 -238 156 -129 114 -170 138 -236 136 -28 -1 -77 7 -108 18
-58 20 -259 62 -355 75 -42 5 -62 16 -119 63 -37 30 -63 57 -57 59 6 2 45 -3
87 -11 41 -9 118 -16 171 -16 l96 0 14 -34 c42 -100 178 -101 203 -3 7 29 12
32 49 35 50 4 83 -22 149 -113 74 -105 172 -155 418 -216 211 -53 385 -112
591 -202 311 -136 532 -207 645 -207 37 0 103 13 178 35 180 51 283 68 384 62
72 -4 85 -2 81 10 -10 24 -205 164 -279 200 -76 36 -117 43 -399 63 -82 6
-153 14 -158 19 -5 5 26 27 71 51 79 41 229 158 307 239 21 22 46 41 53 41 8
0 78 -35 155 -77 115 -64 144 -85 165 -118 103 -164 113 -173 176 -161 19 4
48 20 65 35 40 38 41 87 3 156 -38 69 -65 81 -157 66 -82 -14 -113 -8 -164 27
-20 13 -75 44 -123 68 -49 24 -88 48 -88 53 0 5 6 14 14 20 8 7 12 20 9 30 -3
11 2 21 11 24 18 7 284 -24 456 -53 129 -22 147 -27 382 -99 342 -104 484
-115 668 -51 153 53 540 220 540 233 0 2 -45 3 -101 4 l-100 0 -97 51 c-54 27
-127 58 -162 67 -132 34 -334 16 -775 -72 -230 -45 -230 -45 -380 -39 -172 8
-237 16 -242 32 -2 6 36 29 84 51 125 58 127 58 157 28 28 -28 42 -30 97 -14
52 16 106 63 114 99 6 26 14 32 76 52 64 20 72 21 102 8 24 -12 80 -15 232
-16 110 -1 315 -4 455 -9 371 -11 461 -1 802 83 153 37 280 71 283 74 3 3 -81
34 -187 69 -106 35 -194 69 -195 75 -2 5 61 38 139 73 104 46 149 61 168 56
91 -23 106 -16 170 70 22 30 46 55 52 55 6 0 34 -22 63 -49 34 -32 67 -54 96
-61 47 -13 176 -8 204 8 15 8 13 13 -15 46 -18 20 -30 39 -27 42 3 4 52 1 109
-5 196 -20 430 -34 486 -28 143 15 485 157 565 235 39 38 46 56 24 65 -8 3
-137 -1 -288 -9 -319 -16 -387 -30 -642 -125 -168 -63 -197 -67 -290 -45 -76
18 -86 28 -50 53 24 17 339 192 663 368 126 68 93 62 715 130 365 40 459 60
643 136 253 105 357 165 469 272 56 54 123 141 123 161 0 14 -240 -21 -374
-55 -149 -38 -191 -63 -389 -239 -99 -89 -188 -143 -276 -171 -105 -32 -594
-109 -608 -95 -12 12 16 31 112 76 225 105 511 325 735 565 36 39 106 108 156
155 101 95 170 183 270 345 122 198 174 341 174 477 0 70 -9 85 -27 46 -23
-50 -96 -118 -171 -159 -47 -26 -103 -68 -143 -108 -64 -64 -68 -71 -158 -285
-113 -266 -126 -303 -135 -386 -9 -78 -34 -113 -165 -227 -193 -169 -388 -301
-598 -407 -84 -41 -211 -107 -283 -146 -73 -38 -136 -70 -142 -70 -22 0 -1 34
26 41 16 5 52 31 80 58 60 59 120 93 321 185 83 38 169 81 191 97 79 54 172
176 220 288 27 62 64 174 64 193 0 16 -3 17 -22 7 -68 -34 -191 -140 -338
-288 -266 -266 -465 -461 -473 -461 -4 0 -7 6 -7 13 0 20 131 216 209 312 165
205 310 436 318 508 8 71 -46 224 -105 297 -19 24 -20 24 -48 5 -63 -40 -172
-162 -202 -226 -55 -114 -112 -375 -131 -599 -11 -129 -35 -202 -115 -356
l-62 -119 -338 -187 c-186 -104 -343 -188 -347 -188 -14 0 -11 18 10 58 36 68
69 103 148 155 112 73 254 218 277 282 24 66 124 248 197 357 77 117 59 126
-62 32 -31 -24 -115 -80 -185 -125 -156 -98 -170 -110 -246 -223 -110 -165
-176 -317 -202 -465 -10 -52 -19 -98 -22 -102 -2 -4 -38 10 -79 32 -88 48
-100 46 -167 -19 -45 -43 -48 -44 -77 -32 -62 25 -78 90 -37 145 22 28 32 33
86 38 117 10 200 76 200 159 0 76 -77 140 -143 119 -69 -23 -115 -85 -127
-173 -10 -66 -26 -88 -67 -88 -15 0 -28 10 -37 28 -21 40 -92 102 -118 102
-12 0 -38 -18 -60 -40 -31 -34 -38 -48 -38 -82 0 -34 6 -47 40 -80 43 -43 44
-43 155 -26 29 4 30 -27 3 -55 -13 -13 -42 -27 -64 -31 -53 -11 -133 -51 -173
-88 -40 -37 -97 -125 -107 -162 -8 -31 -24 -41 -84 -51 -25 -4 -157 -32 -295
-62 -137 -30 -331 -71 -430 -92 -99 -22 -192 -42 -207 -46 -45 -12 -33 12 25
49 28 18 153 84 277 146 285 143 367 195 426 271 25 32 98 103 162 158 143
121 144 121 177 200 24 58 46 171 33 171 -3 0 -23 -24 -45 -53 -48 -62 -68
-73 -241 -127 -73 -23 -172 -61 -220 -85 -157 -78 -392 -291 -497 -451 -32
-49 -77 -109 -101 -134 -23 -25 -60 -74 -82 -110 -36 -60 -43 -67 -95 -85 -95
-33 -93 -17 11 138 123 182 142 219 142 279 0 58 -17 96 -60 132 -44 37 -86
34 -142 -8 -25 -19 -48 -42 -52 -51 -12 -33 -5 -92 17 -135 19 -39 27 -46 61
-51 72 -12 85 -75 27 -133 -49 -48 -121 -34 -121 24 0 34 -38 75 -92 100 -58
26 -75 25 -109 -9 -22 -23 -29 -39 -29 -69 0 -45 32 -99 72 -121 24 -14 32
-13 82 2 45 15 60 16 78 6 54 -28 45 -48 -46 -101 -39 -22 -87 -55 -106 -73
-19 -18 -64 -45 -100 -60 -36 -14 -123 -55 -195 -90 -159 -78 -251 -105 -313
-92 -44 8 -44 9 -37 44 6 34 6 35 -22 29 -65 -14 -218 -25 -227 -16 -5 5 16
24 53 47 126 76 269 190 389 309 67 66 122 126 122 131 0 6 -53 -13 -118 -42
-163 -73 -259 -102 -382 -115 -58 -7 -139 -18 -180 -26 -90 -17 -120 -18 -120
-4 0 6 22 43 49 83 73 109 153 251 253 451 157 313 183 391 133 391 -15 0 -34
-27 -78 -110 -69 -130 -166 -277 -234 -357 -54 -63 -118 -115 -280 -228 -59
-41 -156 -122 -215 -180 -98 -97 -108 -110 -126 -170 -11 -35 -24 -66 -31 -68
-6 -2 -30 13 -53 33 -23 19 -53 38 -66 42 -65 16 -147 -27 -214 -110 -31 -40
-38 -57 -38 -93 0 -26 9 -62 21 -86 17 -33 18 -42 7 -49 -7 -5 -22 -6 -33 -3
-11 4 -146 9 -300 11 -169 3 -285 9 -292 15 -7 6 -31 8 -55 4 -33 -5 -50 -2
-75 14 -58 35 -46 46 63 61 101 14 465 93 529 114 97 33 151 62 225 122 102
81 230 217 283 300 26 41 89 111 153 172 l109 103 -40 -7 c-22 -4 -80 -22
-130 -42 -225 -87 -357 -134 -362 -129 -4 3 14 50 40 103 74 160 167 415 167
462 0 8 -48 -33 -107 -90 -134 -130 -183 -169 -328 -259 -130 -81 -198 -142
-225 -203 -11 -24 -35 -119 -55 -212 -39 -178 -54 -217 -116 -302 -45 -60 -74
-83 -107 -83 -22 0 -24 3 -19 29 13 63 42 105 102 146 l60 41 -1 52 c-4 123
-119 194 -160 97 -19 -47 -18 -85 6 -139 18 -42 18 -49 5 -87 -21 -59 -73
-146 -91 -153 -25 -9 -72 -7 -79 4 -3 6 -7 29 -7 51 0 37 5 46 43 79 38 33 44
42 44 78 0 50 -29 84 -91 108 -40 15 -45 15 -68 0 -29 -19 -50 -84 -41 -127
14 -61 -61 -46 -146 30 -119 106 -230 152 -409 171 -185 18 -308 10 -595 -41
l-120 -21 -104 44 c-58 23 -106 49 -109 56 -3 9 14 12 65 12 274 0 610 55 792
129 231 94 488 298 615 487 41 61 57 104 40 104 -14 0 -54 -28 -106 -74 -71
-65 -184 -130 -302 -174 -80 -31 -107 -36 -230 -43 -173 -10 -355 -35 -421
-57 -27 -10 -117 -62 -198 -116 -82 -54 -169 -105 -194 -112 -79 -24 -238 -13
-383 26 -64 17 -221 182 -197 207 4 3 69 -1 144 -10 197 -24 393 -31 488 -18
71 10 124 32 485 198 459 211 504 232 497 239 -3 3 -90 -9 -193 -27 -200 -34
-269 -37 -584 -29 -199 6 -182 12 -425 -152 -209 -140 -229 -147 -363 -125
-54 9 -110 20 -125 26 -29 11 -201 233 -237 307 -37 74 -19 164 44 223 32 30
32 32 0 71 -45 53 -97 73 -177 67 -56 -4 -72 -1 -83 12 -91 108 -299 403 -365
517 -101 174 -157 244 -258 326 -102 82 -177 129 -388 244 -227 123 -261 146
-358 233 -44 40 -111 93 -150 119 -67 45 -73 47 -145 49 -41 0 -131 -3 -200
-8z m9330 -2351 c11 -18 19 -40 18 -48 -2 -8 -71 -44 -158 -82 -155 -69 -155
-69 -225 -63 -38 4 -74 10 -79 15 -12 12 26 71 70 109 75 66 166 99 277 100
77 1 77 1 97 -31z m-4898 -615 c30 -33 52 -108 34 -122 -11 -9 -291 -41 -361
-41 -41 0 -135 47 -135 68 0 8 16 12 48 12 28 0 77 12 125 30 59 23 198 66
258 79 3 0 17 -11 31 -26z m82 -195 c32 -45 24 -48 -106 -48 -128 0 -208 14
-190 32 8 8 162 29 264 37 9 0 24 -9 32 -21z m766 -93 c119 -11 155 -18 198
-40 56 -28 66 -50 33 -79 -11 -10 -25 -31 -32 -48 -11 -27 -10 -32 5 -44 10
-7 16 -20 13 -28 -5 -11 7 -17 51 -26 119 -24 141 -43 52 -48 -91 -5 -449 110
-530 169 -41 31 -104 124 -97 143 8 20 104 21 307 1z m-608 -372 c27 -24 81
-113 74 -120 -8 -9 -146 127 -146 144 0 15 45 0 72 -24z"/>
</g>
</svg>
